<svg width="16" height="16" viewBox="0 0 16 16" fill="none" xmlns="http://www.w3.org/2000/svg">
<g clip-path="url(#clip0_117_753)">
<path fill-rule="evenodd" clip-rule="evenodd" d="M15.9333 10.0933C16.0877 8.40539 16.0227 6.70456 15.74 5.03333C15.4791 3.88768 14.9043 2.83734 14.08 1.99999C13.8968 1.82139 13.7007 1.6565 13.4933 1.50666C13.1933 1.29333 12.8667 1.10666 12.5533 0.926659C12.2237 0.736443 11.8779 0.575815 11.52 0.446659C11.1526 0.328355 10.7719 0.256683 10.3867 0.233325C9.91615 0.199813 9.44384 0.199813 8.97333 0.233325C8.50658 0.274574 8.04325 0.348083 7.58666 0.453325C7.23512 0.521885 6.8987 0.652841 6.59333 0.839992C6.29575 1.0195 6.02807 1.24444 5.79999 1.50666C5.66422 1.65446 5.54978 1.82051 5.45999 1.99999C5.41405 2.09855 5.38692 2.20481 5.37999 2.31333C5.37034 2.34141 5.37034 2.37191 5.37999 2.39999L5.21333 3.90666L5.26666 4.95332C4.97889 4.97376 4.69049 4.9234 4.42666 4.80666L3.87999 4.51999C3.80142 4.47102 3.71891 4.42865 3.63333 4.39333C3.57871 4.37891 3.52128 4.37891 3.46666 4.39333C3.4057 4.42499 3.35315 4.47069 3.31333 4.52666C3.25999 4.59999 3.19999 4.73333 3.17333 4.77332L2.63999 5.43999L0.299994 7.99999C0.256796 8.01206 0.218321 8.03705 0.189724 8.07161C0.161127 8.10616 0.143775 8.14863 0.139994 8.19333C0.0656352 8.56941 0.0188441 8.95042 -6.1392e-06 9.33333C-0.00109288 9.44475 0.020177 9.55525 0.0625452 9.65831C0.104914 9.76137 0.16752 9.85489 0.246661 9.93332C0.318942 9.97157 0.39842 9.99427 0.479994 9.99999C0.531022 10.0041 0.582299 10.0041 0.633327 9.99999C0.683644 10.0571 0.730399 10.1172 0.773327 10.18C0.859863 10.3481 0.929107 10.5246 0.979994 10.7067C1.07316 10.9614 1.14017 11.225 1.17999 11.4933C1.23853 11.7444 1.26098 12.0026 1.24666 12.26C1.22335 12.5752 1.12259 12.8798 0.953327 13.1467H0.826661C0.727237 13.1537 0.62888 13.1716 0.533327 13.2C0.459776 13.2332 0.398961 13.2893 0.359994 13.36C0.259201 13.5691 0.198164 13.7952 0.179994 14.0267C0.154796 14.3284 0.154796 14.6316 0.179994 14.9333C0.173943 15.067 0.18064 15.2009 0.199994 15.3333C0.229609 15.4383 0.28455 15.5345 0.359994 15.6133C0.482259 15.7245 0.641437 15.7862 0.806661 15.7867C1.03143 15.7828 1.25505 15.7538 1.47333 15.7L3.86666 15.3333L7.75999 14.9L9.93333 14.7933C10.56 14.7333 11.18 14.62 11.8067 14.5333C12.0667 14.5 12.32 14.4733 12.58 14.46L14.7667 14.42C14.9793 14.4173 15.1904 14.3836 15.3933 14.32C15.5856 14.2572 15.7504 14.1301 15.86 13.96C15.921 13.8538 15.9574 13.7354 15.9667 13.6133C15.9667 13.38 15.92 13.0467 15.9267 12.88L15.9333 10.0933ZM5.77999 3.93333C5.77999 3.65999 5.83333 3.37999 5.83999 3.09333L5.97333 3.21333C6.13633 3.42825 6.22522 3.69025 6.22666 3.95999C6.23804 4.08695 6.22385 4.21491 6.18491 4.33629C6.14598 4.45767 6.0831 4.57 5.99999 4.66666C5.93028 4.7291 5.85164 4.78078 5.76666 4.81999L5.77999 3.93333ZM2.97333 5.74666L3.55999 5.07999L3.65333 4.97333L4.21333 5.27999C4.54994 5.43947 4.92162 5.51059 5.29333 5.48666C5.68725 5.47427 6.06354 5.32044 6.35333 5.05333C6.49115 4.90994 6.59922 4.74068 6.67131 4.55532C6.74339 4.36996 6.77807 4.17215 6.77333 3.97333C6.7729 3.58499 6.64918 3.20682 6.41999 2.89333C6.27073 2.72936 6.11272 2.57358 5.94666 2.42666C5.945 2.35837 5.96356 2.29111 5.99999 2.23333C6.06907 2.12893 6.14715 2.03078 6.23333 1.93999C6.42694 1.72169 6.65155 1.53301 6.89999 1.37999C7.15013 1.2368 7.42298 1.13759 7.70666 1.08666C8.14721 1.00066 8.59241 0.940556 9.03999 0.906659C9.48378 0.87242 9.92954 0.87242 10.3733 0.906659C10.7007 0.931359 11.0234 0.998591 11.3333 1.10666C11.647 1.22044 11.9504 1.36095 12.24 1.52666C12.5359 1.69387 12.823 1.87634 13.1 2.07333C13.2727 2.20308 13.4354 2.34571 13.5867 2.49999C14.3105 3.25233 14.8093 4.19222 15.0267 5.21333C15.0267 5.29999 15.0267 5.39999 15.0667 5.49332L14.4 5.59333C13.6933 5.71999 13 5.87999 12.2933 6.00666L7.13333 6.95333L3.99999 7.45333C3.33333 7.59333 2.59333 7.75999 1.88666 7.89333C1.53333 7.95999 1.17333 8.00666 0.819994 8.05333L2.97333 5.74666ZM1.85999 11.08C1.78391 10.8722 1.68556 10.6733 1.56666 10.4867C1.50666 10.3933 1.43333 10.3133 1.37333 10.22C1.69902 10.3415 2.00294 10.5149 2.27333 10.7333C2.37645 10.8014 2.46174 10.8933 2.52206 11.0012C2.58237 11.109 2.61596 11.2298 2.61999 11.3533C2.58526 11.7136 2.45653 12.0584 2.24666 12.3533C2.12111 12.5275 1.97317 12.6844 1.80666 12.82C1.9128 12.5815 1.97815 12.3268 1.99999 12.0667C2.01983 11.7252 1.97226 11.3831 1.85999 11.06V11.08ZM15.1933 13.5933C15.1455 13.6237 15.09 13.6399 15.0333 13.64C14.938 13.6493 14.842 13.6493 14.7467 13.64L12.5467 13.7C12.2667 13.7 11.9867 13.7467 11.7133 13.7867C11.1 13.8733 10.4867 14 9.86666 14.0667L7.69999 14.1933L3.79999 14.6667L1.37333 15.0667L0.786661 15.16L0.746661 14.9267C0.726905 14.6604 0.726905 14.393 0.746661 14.1267C0.758749 14.005 0.78105 13.8846 0.813327 13.7667H0.899994C1.04575 13.7507 1.19045 13.7262 1.33333 13.6933C1.46793 13.6544 1.59941 13.6053 1.72666 13.5467C2.10454 13.3309 2.42651 13.0295 2.66666 12.6667C2.9268 12.2923 3.08112 11.8547 3.11333 11.4C3.11424 11.1949 3.06563 10.9927 2.97161 10.8105C2.8776 10.6282 2.74096 10.4714 2.57333 10.3533C2.15279 10.0367 1.67176 9.80984 1.15999 9.68666L0.526661 9.61333C0.487589 9.5565 0.460368 9.49238 0.446623 9.4248C0.432878 9.35722 0.432891 9.28757 0.446661 9.21999C0.460063 8.99603 0.489021 8.77327 0.533327 8.55332C0.999994 8.55332 1.46666 8.48666 1.92666 8.42666C2.64666 8.33999 3.35999 8.21999 4.07333 8.12666C4.78666 8.03333 5.54666 7.98666 6.28666 7.90666C6.60666 7.86666 6.95333 7.81999 7.25333 7.75999C8.11333 7.59333 8.97333 7.43333 9.82666 7.25333C10.68 7.07333 11.54 6.85999 12.3867 6.65999C13.0867 6.49333 13.7733 6.29333 14.4667 6.13333L15.08 6.00666C15.2125 7.36949 15.2281 8.74116 15.1267 10.1067V12.8867C15.1467 12.9933 15.18 13.4933 15.1867 13.5733L15.1933 13.5933Z" fill="black"/>
<path fill-rule="evenodd" clip-rule="evenodd" d="M6.78007 11.4003C6.70045 11.3449 6.61275 11.3022 6.52007 11.2736C6.43426 11.2391 6.3448 11.2145 6.2534 11.2003C6.19974 11.1797 6.1404 11.1797 6.08674 11.2003C5.79754 11.2056 5.51044 11.2505 5.2334 11.3336C5.01106 11.4219 4.81407 11.5639 4.66007 11.7469C4.48446 11.9318 4.37902 12.1723 4.36197 12.4268C4.34493 12.6812 4.41736 12.9336 4.56673 13.1403C4.70798 13.334 4.89379 13.4909 5.10846 13.5976C5.32313 13.7044 5.56035 13.7579 5.80007 13.7536C6.0823 13.7378 6.35634 13.6529 6.59812 13.5065C6.8399 13.36 7.04202 13.1564 7.18673 12.9136C7.26232 12.7883 7.31181 12.649 7.33225 12.5041C7.35269 12.3592 7.34365 12.2117 7.30567 12.0703C7.26769 11.929 7.20156 11.7968 7.11124 11.6817C7.02093 11.5665 6.90828 11.4708 6.78007 11.4003ZM6.6134 12.5936C6.51968 12.723 6.39632 12.828 6.25365 12.9C6.11098 12.9719 5.95316 13.0086 5.7934 13.0069C5.67576 13.0092 5.5591 12.9852 5.45187 12.9368C5.34463 12.8883 5.24951 12.8167 5.1734 12.7269C5.11014 12.6435 5.07589 12.5416 5.07589 12.4369C5.07589 12.3322 5.11014 12.2304 5.1734 12.1469C5.26784 11.9847 5.41312 11.8582 5.58674 11.7869C5.76903 11.7154 5.9593 11.6662 6.1534 11.6403L6.48007 11.8136C6.54222 11.8542 6.59532 11.9073 6.63605 11.9694C6.67678 12.0315 6.70426 12.1013 6.71677 12.1745C6.72928 12.2477 6.72656 12.3227 6.70878 12.3948C6.69099 12.4669 6.65852 12.5346 6.6134 12.5936Z" fill="black"/>
<path fill-rule="evenodd" clip-rule="evenodd" d="M12.2667 7.62667C12.0192 7.52154 11.7552 7.46062 11.4867 7.44667H11.44C11.4143 7.41676 11.3804 7.3951 11.3424 7.38442C11.3044 7.37375 11.2642 7.37453 11.2267 7.38667C10.8411 7.49871 10.4871 7.69965 10.1933 7.97334C9.88909 8.25548 9.67168 8.61859 9.56666 9.02C9.47794 9.33449 9.45347 9.66361 9.4947 9.98776C9.53594 10.3119 9.64203 10.6244 9.80666 10.9067C9.98707 11.1973 10.2355 11.4396 10.5305 11.6126C10.8256 11.7857 11.1583 11.8843 11.5 11.9C11.6376 11.91 11.7757 11.91 11.9133 11.9C12.0493 11.8816 12.1832 11.8503 12.3133 11.8067C12.79 11.6609 13.2184 11.3891 13.5533 11.02C13.7907 10.7481 13.9334 10.4066 13.96 10.0467C13.9972 9.49966 13.8257 8.95888 13.48 8.53334C13.1567 8.13544 12.7399 7.82392 12.2667 7.62667ZM12.86 10.6267C12.6314 10.8236 12.3631 10.9691 12.0733 11.0533C11.9891 11.0828 11.9019 11.1029 11.8133 11.1133C11.7246 11.12 11.6354 11.12 11.5467 11.1133C11.321 11.1111 11.0991 11.0549 10.8996 10.9493C10.7001 10.8438 10.5288 10.692 10.4 10.5067C10.1361 10.1009 10.0382 9.60923 10.1267 9.13334C10.18 8.82113 10.3237 8.5314 10.54 8.3C10.6581 8.16729 10.7951 8.05273 10.9467 7.96C10.9918 7.97687 11.0415 7.97687 11.0867 7.96C11.2396 7.9199 11.4004 7.9199 11.5533 7.96C11.7245 7.99329 11.8904 8.04935 12.0467 8.12667C12.418 8.30469 12.7389 8.57284 12.98 8.90667C13.2068 9.21292 13.3049 9.59574 13.2533 9.97334C13.209 10.2328 13.0686 10.4661 12.86 10.6267Z" fill="black"/>
<path fill-rule="evenodd" clip-rule="evenodd" d="M10.5933 5.18685C10.8885 5.19863 11.1815 5.13205 11.4427 4.99388C11.7038 4.85571 11.9237 4.65087 12.08 4.40018C12.1868 4.21707 12.2364 4.00611 12.2221 3.79457C12.2078 3.58303 12.1305 3.38063 12 3.21351L11.6666 2.86685C11.5817 2.80547 11.49 2.75403 11.3933 2.71351L11.1733 2.66685V2.60685C11.1699 2.55321 11.1457 2.50301 11.1058 2.46692C11.066 2.43083 11.0137 2.41167 10.96 2.41351C10.6243 2.41975 10.295 2.50664 9.99998 2.66685C9.78252 2.77939 9.59857 2.94725 9.46664 3.15351C9.34268 3.35378 9.27701 3.58465 9.27701 3.82018C9.27701 4.05571 9.34268 4.28658 9.46664 4.48685C9.58542 4.68456 9.74955 4.85116 9.94546 4.97288C10.1414 5.0946 10.3634 5.16794 10.5933 5.18685ZM9.99998 3.44018C10.084 3.2703 10.2162 3.12888 10.38 3.03351C10.4699 2.97613 10.5661 2.92916 10.6666 2.89351C10.6785 2.93144 10.7002 2.96557 10.7295 2.99249C10.7587 3.0194 10.7945 3.03815 10.8333 3.04685C10.9229 3.07208 11.0099 3.10556 11.0933 3.14685C11.1675 3.18256 11.2369 3.22735 11.3 3.28018L11.48 3.52685C11.5512 3.63099 11.5792 3.75871 11.558 3.88308C11.5369 4.00745 11.4683 4.11875 11.3666 4.19351C11.1703 4.35361 10.9189 4.43021 10.6666 4.40685C10.5552 4.4 10.4469 4.36683 10.3507 4.31004C10.2545 4.25326 10.1732 4.17448 10.1133 4.08018C10.0414 3.99204 9.9932 3.88695 9.97336 3.77493C9.95353 3.6629 9.96269 3.54766 9.99998 3.44018Z" fill="black"/>
</g>
<defs>
<clipPath id="clip0_117_753">
<rect width="16" height="16" fill="white"/>
</clipPath>
</defs>
</svg>
